<?xml version="1.0" encoding="UTF-8" standalone="no"?>
<!DOCTYPE svg PUBLIC "-//W3C//DTD SVG 1.1//EN"
 "http://www.w3.org/Graphics/SVG/1.1/DTD/svg11.dtd">
<!-- Generated by graphviz version 2.40.1 (20161225.0304)
 -->
<!-- Title: G Pages: 1 -->
<svg width="239pt" height="160pt"
 viewBox="0.00 0.00 239.37 160.00" xmlns="http://www.w3.org/2000/svg" xmlns:xlink="http://www.w3.org/1999/xlink">
<g id="graph0" class="graph" transform="scale(1 1) rotate(0) translate(4 156)">
<title>G</title>
<polygon fill="#ffffff" stroke="transparent" points="-4,4 -4,-156 235.3672,-156 235.3672,4 -4,4"/>
<text text-anchor="middle" x="115.6836" y="-138.4" font-family="gotham-book,sans-serif" font-size="12.00" fill="#000000">45b14665b233432a3c2b</text>
<g id="clust1" class="cluster">
<title>cluster_0</title>
<polygon fill="#f2f2f2" stroke="#8c8c8c" points="8,-34 8,-124 223.3672,-124 223.3672,-34 8,-34"/>
<text text-anchor="middle" x="115.6836" y="-110.4" font-family="gotham-book,sans-serif" font-size="12.00" fill="#474747">main [entry] [initial]</text>
</g>
<!-- 0 -->
<g id="node1" class="node">
<title>0</title>
<polygon fill="#cdefc2" stroke="#51b530" points="53.0322,-90.3333 15.9893,-90.3333 15.9893,-67.6667 53.0322,-67.6667 53.0322,-62 70.0322,-79 53.0322,-96 53.0322,-90.3333"/>
<text text-anchor="middle" x="43.0107" y="-75.4" font-family="gotham-book,sans-serif" font-size="12.00" fill="#185902">app.js</text>
</g>
<!-- 1 -->
<g id="node2" class="node">
<title>1</title>
<polygon fill="#cdefc2" stroke="#51b530" points="215.5406,-92 105.8481,-92 105.8481,-66 215.5406,-66 215.5406,-92"/>
<text text-anchor="middle" x="160.6943" y="-75.4" font-family="gotham-book,sans-serif" font-size="12.00" fill="#185902">flickr_service.js</text>
</g>
<!-- 0&#45;&gt;1 -->
<g id="edge1" class="edge">
<title>0&#45;&gt;1</title>
<path fill="none" stroke="#b53030" d="M70.3055,-79C70.3055,-79 98.2288,-79 98.2288,-79"/>
<polygon fill="#b53030" stroke="#b53030" points="98.2288,-81.6251 105.7288,-79 98.2287,-76.3751 98.2288,-81.6251"/>
</g>
<!-- cluster_0hidden -->
<!-- file_bundle.app.js -->
<g id="node4" class="node">
<title>file_bundle.app.js</title>
<polygon fill="#c2cdef" stroke="#3051b5" points="210.5857,-26 110.8029,-26 110.8029,0 210.5857,0 210.5857,-26"/>
<text text-anchor="middle" x="160.6943" y="-9.4" font-family="gotham-book,sans-serif" font-size="12.00" fill="#021859">bundle.app.js</text>
</g>
<!-- cluster_0hidden&#45;&gt;file_bundle.app.js -->
<g id="edge2" class="edge">
<title>cluster_0hidden&#45;&gt;file_bundle.app.js</title>
<path fill="none" stroke="#3051b5" d="M43.3672,-34.0009C43.3672,-25.1641 43.3672,-13 43.3672,-13 43.3672,-13 103.4371,-13 103.4371,-13"/>
<polygon fill="#3051b5" stroke="#3051b5" points="103.4371,-15.6251 110.9371,-13 103.437,-10.3751 103.4371,-15.6251"/>
</g>
</g>
</svg>
